<?xml version="1.0" standalone="no"?>
<!DOCTYPE svg PUBLIC "-//W3C//DTD SVG 1.1//EN" "http://www.w3.org/Graphics/SVG/1.1/DTD/svg11.dtd">
<svg t="1539861173992" class="icon" style="" viewBox="0 0 1024 1024" version="1.1" xmlns="http://www.w3.org/2000/svg" p-id="1043" xmlns:xlink="http://www.w3.org/1999/xlink" width="25" height="25">
<defs>
<style type="text/css"></style></defs>
<path d="M510.713192 64.130599c-247.114121 0-447.440635 200.326515-447.440635 447.440635 0 235.384985 181.76067 428.316066 412.58478 446.100104L475.857337 711.079104l-158.382217 39.067784 27.980261-57.370639L157.861866 536.858154l49.626257-30.269397-28.861328-105.588827 108.051925 8.79941 20.413935-48.570205 97.141434 96.084359L366.222357 254.233262l89.398076 38.715767 58.776661-136.208195 59.128679 136.560212 89.048105-38.714743L624.209106 457.666534l96.789417-96.437399 19.710924 47.866171 109.812011-8.095375L820.603055 505.885745l49.626257 30.268374-188.299597 155.215084 28.861328 59.833737-159.438269-40.651862 0 246.638283c228.070392-20.533662 406.801053-212.20096 406.801053-445.617104C958.154851 264.456091 757.828336 64.130599 510.713192 64.130599z" fill="#fff" p-id="1044"></path>
</svg>